<svg height="800.034" viewBox="0 0 800.043 800.034" width="800.043" xmlns="http://www.w3.org/2000/svg">
  <path d="m0-400a400 400 0 0 1 391.259 316.835 400 400 0 0 1 -228.564 448.583 400 400 0 0 1 -486.3-130.3l323.605-235.118z" fill="#33a02c" transform="translate(400.003 400)" />
  <path d="m-323.607 235.114a400 400 0 0 1 -56.816-358.721 400 400 0 0 1 256.816-256.816l123.607 380.423z" fill="#b2df8a" transform="translate(400.003 400)" />
  <path d="m-123.607-380.423a400 400 0 0 1 73.474-16.423l50.133 396.846z" fill="#a6cee3" transform="translate(400.003 400)" />
  <path d="m-50.133-396.846a400 400 0 0 1 50.133-3.154v400z" fill="#1f78b4" transform="translate(400.003 400)" />
  <g fill="#fff">
    <text fill="#fff" font-size="32" transform="translate(590.003 414)">
      <tspan x="-110.72" y="0">とても良かった</tspan>
    </text>
    <text fill="#fff" font-size="80" font-weight="700" transform="translate(531.003 503)"><tspan x="0" y="0">65</tspan></text>
    <text fill="#fff" font-size="32" transform="translate(625.003 503)"><tspan x="0" y="0">%</tspan></text>
  </g>
  <g fill="#333">
    <text font-size="32" transform="translate(184.003 346)">
      <tspan x="-64" y="0">良かった</tspan>
    </text>
    <text font-size="80" font-weight="700" transform="translate(123.003 428)"><tspan x="0" y="0">30</tspan></text>
    <text font-size="32" transform="translate(219.003 428)"><tspan x="0" y="0">%</tspan></text>
  </g>
  <g fill="#333">
    <text font-size="32" transform="translate(305.003 71)"><tspan x="-32" y="0">普通</tspan></text>
    <text font-size="80" font-weight="700" transform="translate(267.003 150)"><tspan x="0" y="0">3</tspan></text>
    <text font-size="32" transform="translate(314.003 150)"><tspan x="0" y="0">%</tspan></text>
  </g>
</svg>
