<svg height="34.35" viewBox="0 0 181.71 34.35" width="181.71" xmlns="http://www.w3.org/2000/svg"><path d="m17.98 22.17-.98 12.19h-5.01l.58-7.28h-5.06l-2.52 7.28h-4.99l4.18-12.13 8.23-22.23h6.79l-1.23 22.17zm-5.01 0 1.14-14.29-4.92 14.29z"/><path d="m54.59 22.17-.98 12.19h-5.01l.58-7.28h-5.06l-2.52 7.28h-4.99l4.18-12.13 8.23-22.23h6.79zm-5.01 0 1.14-14.29-4.92 14.29z"/><path d="m26.89 0h4.96l-7.3 34.35h-4.96z" fill="#015db1"/><path d="m35.86 0h4.96l-7.3 34.35h-4.96z" fill="#015db1"/><path d="m75.97 9.94v1.22h-10.91v-1.22z"/><path d="m82.74 10.97v4.14c0 .47-.1.74-.4.9-.3.14-.73.17-1.4.17-.04-.24-.17-.66-.3-.89.44.01.86.01.98 0 .14 0 .19-.05.19-.18v-4.03l-1.96.22c-.01 1.54-.14 3.57-.98 4.87-.16-.16-.54-.4-.77-.5.74-1.2.85-2.88.86-4.27l-.74.08-.11-.91.85-.08v-3.68h1.06c.16-.52.32-1.16.4-1.64l1.2.23c-.19.48-.4 1-.56 1.42h1.68v3.3l.53-.05v.86s-.53.06-.53.06zm-.92-.78v-2.51h-1.96v2.71zm-.97-2.12c.3.47.56 1.12.65 1.54l-.73.31c-.07-.43-.31-1.09-.6-1.57zm.28 6.2h-.67v-2.76h.67zm7.56-3.78c-.35 1.48-.98 2.65-1.81 3.57.68.54 1.52.95 2.5 1.19-.22.2-.53.64-.67.91-1.01-.3-1.86-.77-2.58-1.39-.75.62-1.62 1.08-2.57 1.42-.13-.28-.4-.72-.61-.94.89-.26 1.71-.68 2.42-1.25-.59-.72-1.06-1.57-1.4-2.54l.79-.18h-1.2v-1h4.26l.19-.05.68.25zm-3.59-3.3c0 .96-.19 2.15-1.16 2.93-.17-.18-.58-.53-.8-.65.86-.66.97-1.56.97-2.3v-1.55h3.59v2.7c0 .2 0 .34.05.37.04.04.1.05.17.05h.26c.08 0 .17-.01.2-.04.05-.04.1-.11.12-.26.02-.16.04-.52.05-.97.18.17.54.35.8.43-.02.46-.07.97-.13 1.16-.07.2-.2.35-.38.43-.14.07-.38.11-.58.11h-.61c-.24 0-.54-.06-.71-.24-.18-.17-.25-.38-.25-1.07v-1.7h-1.58v.6zm-.23 4.09c.28.77.7 1.45 1.22 2.05.53-.58.95-1.27 1.25-2.05z"/><path d="m95.81 12.82c-.28-.35-.82-.92-1.31-1.42v4.77h-1.1v-4.43c-.54.53-1.12.98-1.68 1.34-.11-.29-.38-.82-.55-1.03 1.37-.78 2.75-2.17 3.56-3.67h-3.14v-1.02h1.81v-2.21h1.1v2.21h.83l.19-.04.62.42c-.36.91-.89 1.79-1.49 2.58.56.46 1.56 1.32 1.83 1.57l-.68.91zm6.69 1.92v1.1h-6.72v-1.1h2.9v-4.7h-2.42v-1.08h2.42v-3.69h1.14v3.69h2.42v1.08h-2.42v4.7h2.67z"/><path d="m115.12 5.7v10.47h-1.16v-.52h-7.76v.52h-1.12v-10.47zm-1.16 8.89v-7.83h-7.76v7.82h7.76zm-.43-5.1h-1.49v3.54c0 .55-.13.82-.5.97-.38.16-.97.17-1.86.17-.05-.28-.18-.68-.31-.96.6.02 1.21.01 1.4.01.17-.01.22-.06.22-.2v-3.53h-4.25v-.96h4.25v-1.37h1.05v1.37h1.49zm-5.24.44c.58.62 1.18 1.46 1.4 2.06l-.85.48c-.22-.59-.79-1.48-1.35-2.12z"/><path d="m120.07 10.51c-.49-.38-1.5-.91-2.31-1.19l.58-.86c.8.26 1.82.73 2.35 1.1l-.61.95zm1.03 1.72c-.58 1.26-1.33 2.67-2 3.79l-.96-.71c.61-.92 1.48-2.43 2.12-3.8zm-.41-4.86c-.48-.42-1.48-.98-2.28-1.31l.61-.83c.8.29 1.8.8 2.31 1.22l-.65.91zm7.16 8.83c-.11-.29-.26-.62-.46-.98-2.24.18-4.59.34-6.22.46l-.16-1.13.96-.05c.48-.97.97-2.29 1.29-3.37h-2.27v-1.06h3.21v-1.99h-2.62v-1.06h2.62v-1.85h1.15v1.85h2.73v1.06h-2.73v1.99h3.3v1.06h-4.07c-.41 1.09-.94 2.33-1.43 3.31 1.13-.06 2.39-.13 3.63-.2-.35-.55-.73-1.09-1.12-1.56l.96-.5c.9 1.04 1.86 2.47 2.24 3.44l-1.04.59z"/><path d="m136.96 5.49c-.01.17-.01.37-.04.59.11 1.6.73 6.98 5.22 9.04-.35.26-.67.64-.85.94-2.9-1.4-4.23-4.15-4.86-6.46-.58 2.29-1.83 4.88-4.62 6.48-.2-.29-.56-.64-.92-.88 4.8-2.55 4.72-8.12 4.81-9.7h1.26z"/><path d="m69.01 28.7c-.17-.34-.53-.94-.85-1.44v5.17h-1.08v-4.94c-.48 1.16-1.08 2.28-1.69 3-.11-.32-.37-.83-.56-1.12.76-.82 1.55-2.25 2.03-3.54h-1.76v-1.03h1.99v-1.73c-.56.11-1.13.2-1.66.26-.05-.24-.19-.62-.32-.86 1.39-.23 2.95-.58 3.91-.96l.72.86c-.47.18-1.01.34-1.57.47v1.95h1.64v1.03h-1.64v.22c.29.3 1.27 1.46 1.48 1.76l-.62.89zm4.23-7.27c-.01 1.64-.01 3.17-.14 4.57.41 2.53 1.25 4.58 3 5.52-.22.19-.54.59-.7.88-1.34-.83-2.18-2.17-2.71-3.93-.46 1.68-1.29 3.02-2.85 3.97-.16-.25-.48-.62-.74-.8 3.2-1.86 3.11-5.48 3.12-10.19h1.03zm-3.63 5.69c.48-.71.74-1.98.82-3.07l.96.13c-.05 1.18-.3 2.49-.82 3.32zm6.2-2.81c-.41 1.09-.91 2.33-1.33 3.13l-.94-.28c.42-.84.91-2.16 1.18-3.14z"/><path d="m88.58 22.22v10.09h-1.15v-.73h-7.5v.73h-1.1v-10.09zm-8.65 1.07v3h3.12v-3zm0 7.16h3.12v-3.05h-3.12zm7.5-7.16h-3.25v3h3.25zm0 7.16v-3.05h-3.25v3.05z"/><path d="m95.27 29.93c-.76.89-1.9 1.79-2.89 2.35-.23-.22-.64-.56-.9-.73.98-.5 2.07-1.34 2.63-2.05zm2.22-.85v3.32h-1.18v-3.32h-3.03v.29h-1.12v-6.88h1.12v5.61h8.95v.98zm3.39-1.75h-6.55v-5.48h6.55zm-1.08-4.69h-4.41v.79h4.41zm0 1.54h-4.41v.8h4.41zm0 1.55h-4.41v.82h4.41zm-.32 3.73c.91.62 2.17 1.55 2.82 2.16l-1.01.68c-.59-.6-1.81-1.57-2.76-2.24z"/><path d="m104.44 26.8c.25-.8.44-2.13.52-3.08l.8.11c-.04.95-.23 2.35-.48 3.25zm3.11-1.65c-.12-.42-.37-1.13-.61-1.68v8.94h-1.02v-11h1.02v1.97l.7-.28c.25.54.56 1.25.67 1.69zm8.02.07v.83h-7.78v-.83h3.29v-.7h-2.63v-.78h2.63v-.62h-2.92v-.83h2.92v-.89h1.1v.89h3.03v.83h-3.03v.62h2.72v.78h-2.72v.7zm-.89 6.04c0 .5-.11.79-.47.95-.37.16-.94.17-1.76.17-.05-.28-.19-.7-.32-.96.55.04 1.13.02 1.28.02.17-.01.22-.06.22-.2v-.65h-3.97v1.81h-1.03v-5.77h6.06v4.63zm-5.02-3.79v.74h3.97v-.74zm3.97 2.31v-.74h-3.97v.74z"/><path d="m121.03 24.54h2.1v.95h-1.12l.52.13c-.2.5-.42 1.03-.61 1.42h1.07v.96h-1.96v1.13h1.8v.95h-1.8v2.31h-1.04v-2.31h-1.88v-.95h1.88v-1.13h-1.99v-.96h1.04c-.06-.41-.24-.97-.46-1.42l.49-.13h-1.28v-.95h2.19v-1.04h-1.76v-.94h1.76v-1.13h1.04v1.13h1.66v.94h-1.66v1.04zm.02 2.39c.17-.41.38-1.01.5-1.44h-2.08c.22.47.42 1.06.47 1.44l-.4.11h1.91l-.41-.11zm7.45-.73c-.24 1.43-.7 2.77-1.36 3.91.52.6 1.12 1.09 1.79 1.43-.24.2-.58.61-.74.89-.61-.36-1.16-.84-1.66-1.42-.42.55-.91 1.03-1.46 1.43-.14-.2-.38-.47-.61-.65v.64h-1.01v-10.48h4.77v2.27c0 .52-.11.8-.53.96-.4.16-1.01.16-1.91.16-.05-.29-.19-.7-.33-.96.68.02 1.32.02 1.5.01s.23-.05.23-.18v-1.27h-2.72v3.07h3.18l.18-.05.68.25zm-4.04 5.39c.55-.38 1.02-.88 1.43-1.44-.61-.95-1.08-2.05-1.43-3.24zm.94-4.68c.26.82.62 1.59 1.07 2.3.38-.72.66-1.5.85-2.3z"/><path d="m141.83 24.85v.97h-8.8v.92c0 1.61-.2 4.04-1.28 5.65-.18-.19-.64-.59-.85-.71.96-1.48 1.07-3.53 1.07-4.94v-1.89h2.24c-.1-.41-.31-.96-.54-1.39l.43-.11h-2.28v-.97h4.13v-.98h1.12v.98h4.17v.97h-1.7l.16.04c-.3.52-.6 1.06-.85 1.46h3zm-3.81 6.38h3.75v.95h-8.44v-.95h3.6v-1.32h-2.61v-.86h2.61v-1.1h-2.05c-.25.41-.54.77-.82 1.06-.2-.16-.64-.42-.89-.54.66-.59 1.21-1.5 1.52-2.41l1 .23c-.1.26-.2.53-.32.78h1.56v-.98h1.09v.98h3.07v.89h-3.07v1.1h2.75v.86h-2.75v1.32zm-3.26-7.88c.25.44.48 1 .55 1.38l-.43.12h3.23l-.3-.1c.18-.4.41-.95.55-1.4z"/><path d="m151.18 29.63c1.06.74 2.6 1.36 4.07 1.63-.25.24-.58.7-.74 1-1.56-.42-3.17-1.22-4.29-2.25v2.41h-1.09v-2.33c-1.14.96-2.76 1.74-4.26 2.16-.17-.29-.48-.71-.73-.95 1.43-.3 2.99-.92 4.04-1.67h-3.71v-.94h4.65v-.73h-3.54v-.84h3.54v-.72h-4.12v-.89h2.46c-.11-.34-.31-.77-.5-1.09l.29-.05h-2.72v-.94h1.78c-.18-.47-.54-1.13-.88-1.62l.97-.32c.37.52.79 1.25.96 1.71l-.61.23h1.32v-2.05h1.04v2.05h1.19v-2.05h1.05v2.05h1.3l-.46-.14c.29-.48.66-1.24.84-1.77l1.15.29c-.32.59-.68 1.19-1 1.63h1.73v.94h-2.31c-.23.41-.47.8-.67 1.14h2.54v.89h-4.25v.72h3.68v.84h-3.68v.73h4.73v.94h-3.75zm-3.08-5.25c.22.35.43.78.52 1.07l-.35.07h2.53c.18-.32.37-.76.53-1.14z"/><path d="m159.85 25.5v6.91h-1.07v-6.91h-1.4v-1.02h1.4v-3.07h1.07v3.07h1.32v1.02zm4.37 2.12s0 .28-.01.4c-.08 2.7-.17 3.69-.42 4.02-.16.23-.34.31-.61.35-.2.04-.56.04-.91.02-.01-.26-.1-.65-.23-.88.31.04.55.04.7.04.12 0 .2-.02.28-.13.14-.19.22-.94.28-2.95h-.77c-.19 1.68-.65 3.02-1.7 3.96-.12-.22-.41-.54-.61-.7.86-.76 1.22-1.87 1.38-3.26h-1.04v-.86h1.1c.02-.37.04-.77.05-1.18h.95c-.01.41-.02.8-.05 1.18h1.63zm.47-4.07c-.42 1.28-1.27 2.22-2.95 2.85-.11-.23-.36-.59-.56-.77 1.37-.47 2.06-1.16 2.43-2.09h-1.94v-.9h2.19c.07-.38.12-.8.14-1.25h1.04c-.02.44-.07.86-.14 1.25h2.91s-.01.26-.04.4c-.14 1.74-.3 2.48-.59 2.78-.22.24-.44.31-.77.34-.28.02-.77.04-1.3.01-.01-.3-.12-.7-.28-.95.48.04.94.05 1.13.05.17 0 .28-.01.37-.1.14-.14.28-.61.37-1.63h-2.04zm3.55 4.07s0 .28-.01.41c-.07 2.67-.16 3.67-.4 4.01-.18.23-.36.31-.64.35-.23.04-.6.04-.98.02-.02-.28-.11-.66-.24-.91.32.05.61.05.74.05.14 0 .23-.02.3-.13.14-.19.22-.91.28-2.93h-.85c-.2 1.68-.68 2.99-1.78 3.91-.12-.22-.4-.55-.62-.71.9-.74 1.27-1.82 1.43-3.2h-.97v-.86h1.04c.02-.38.04-.79.05-1.21h.98c-.01.42-.02.83-.05 1.21h1.71z"/><path d="m173.27 25.21c-.66.47-1.37.9-2.09 1.25-.12-.25-.42-.67-.66-.91 2.05-.94 4.01-2.66 4.91-4.13h1.15c1.27 1.76 3.26 3.23 5.13 3.96-.26.28-.52.67-.71 1.01-.7-.34-1.43-.76-2.12-1.25v.94h-5.61v-.86zm-2.06 2.11h9.85v1.04h-5.49c-.4.8-.84 1.7-1.27 2.47 1.33-.05 2.82-.11 4.28-.17-.44-.5-.92-1.01-1.39-1.43l.96-.52c1.09.92 2.23 2.19 2.78 3.08l-1.02.64c-.13-.23-.31-.49-.53-.78-2.85.14-5.9.28-7.94.36l-.14-1.09 1.78-.06c.4-.74.83-1.7 1.12-2.51h-2.97v-1.04zm7.54-2.28c-1.08-.77-2.06-1.67-2.7-2.54-.58.84-1.49 1.74-2.55 2.54z"/></svg>