<svg viewBox="0 0 364.86 219.74" xmlns="http://www.w3.org/2000/svg"><g fill="#3e3a39"><path d="m141.53 154.58c-2.37 2.74-5.86 4.48-9.76 4.48-7.13 0-12.93-5.8-12.93-12.93s5.8-12.92 12.93-12.92c3.9 0 7.39 1.74 9.76 4.48v-6.15c-2.79-1.87-6.15-2.97-9.76-2.97-9.69 0-17.57 7.88-17.57 17.57s7.88 17.57 17.57 17.57c3.61 0 6.97-1.1 9.76-2.97v-6.15z"/><path d="m148.87 129.42h13.35c12.25 0 16.76 7.83 16.76 16.72 0 6.61-2.53 16.67-17.01 16.67h-13.09v-33.39zm4.97 28.84h7.28c6.36 0 12.84-1.77 12.84-12.17s-6.99-12.13-12.84-12.13h-7.28v24.29z"/><path d="m231.29 143.27v4.5h-14.36v10.48h16.29v4.55h-21.3v-33.39h20.71v4.55h-15.7v9.31z"/><path d="m112.49 173.43c-.44.23-.93.34-1.42.34-1.62 0-2.46-1.1-2.46-2.39 0-1.48 1.1-2.41 2.45-2.41.53 0 .99.13 1.44.42l-.23.63c-.26-.23-.66-.43-1.21-.43-1.13 0-1.76.82-1.76 1.77 0 .88.54 1.77 1.81 1.77.57 0 1.01-.18 1.38-.46v.75z"/><path d="m113.88 172.18c.05.7.48 1.01 1.13 1.01.53 0 .83-.16 1.08-.3v.66c-.18.08-.53.22-1.09.22-1.41 0-1.76-1.06-1.76-1.79 0-1.1.68-1.84 1.59-1.84.41 0 1.07.16 1.38.93.16.38.17.83.17 1.1h-2.49zm1.84-.53c-.08-.85-.71-.92-.91-.92-.4 0-.85.25-.92.92z"/><path d="m117.29 173.68v-3.44h.64v.41c.24-.33.62-.51 1.03-.51.53 0 .86.29.99.55.14.28.16.56.16.83v2.15h-.65v-2.15c0-.4-.11-.8-.67-.8-.34 0-.84.2-.84.99v1.95h-.65z"/><path d="m121.32 169.24h.65v.99h1v.59h-1v1.81c0 .31.02.54.49.54.16 0 .37-.02.47-.04v.59c-.13.01-.34.04-.59.04-1.02 0-1.02-.6-1.02-1.11v-1.83h-.42v-.59h.42z"/><path d="m124.24 172.18c.05.7.48 1.01 1.13 1.01.53 0 .83-.16 1.08-.3v.66c-.18.08-.53.22-1.09.22-1.41 0-1.76-1.06-1.76-1.79 0-1.1.68-1.84 1.59-1.84.41 0 1.07.16 1.38.93.16.38.17.83.17 1.1h-2.49zm1.83-.53c-.08-.85-.71-.92-.91-.92-.4 0-.85.25-.92.92z"/><path d="m127.65 173.68v-3.44h.63v.41c.26-.38.6-.52 1.08-.51v.6c-.65-.03-1.06.24-1.06 1.01v1.93z"/><path d="m133.87 170.24v.59h-.62v2.85h-.65v-2.85h-.44v-.59h.44v-.37c0-.34 0-1.01.92-1.01.15 0 .27.02.35.03l-.05.58s-.09-.01-.17-.01c-.4 0-.4.22-.4.44v.34z"/><path d="m136.18 170.14c.89 0 1.7.68 1.7 1.81s-.8 1.81-1.7 1.81-1.7-.68-1.7-1.81.81-1.81 1.7-1.81zm0 3.03c.43 0 1.05-.27 1.05-1.21s-.62-1.22-1.05-1.22-1.05.27-1.05 1.22.63 1.21 1.05 1.21z"/><path d="m138.81 173.68v-3.44h.63v.41c.26-.38.6-.52 1.08-.51v.6c-.65-.03-1.06.24-1.06 1.01v1.93z"/><path d="m143.63 169.07h1.84c1.69 0 2.31 1.08 2.31 2.31 0 .91-.35 2.3-2.35 2.3h-1.81v-4.61zm.69 3.98h1.01c.88 0 1.77-.24 1.77-1.68s-.97-1.67-1.77-1.67h-1.01z"/><path d="m148.86 170.44c.29-.16.68-.3 1.15-.3.5 0 .94.14 1.19.45.19.23.24.51.24.9v1.47c0 .33.05.55.13.72h-.65c-.05-.09-.08-.21-.08-.39-.26.27-.65.48-1.15.48-.66 0-1.13-.39-1.13-1.03 0-.92.86-1.11 1.48-1.19.63-.08.75-.1.75-.34 0-.3-.31-.48-.77-.48s-.81.16-1.1.34l-.05-.63zm1.94 1.49c-.15.07-.32.1-.68.14-.49.06-.94.16-.94.64 0 .28.19.49.54.49.31 0 .8-.15 1.08-.64z"/><path d="m152.69 169.24h.65v.99h1v.59h-1v1.81c0 .31.02.54.49.54.16 0 .37-.02.47-.04v.59c-.13.01-.34.04-.59.04-1.02 0-1.02-.6-1.02-1.11v-1.83h-.42v-.59h.42z"/><path d="m155.29 170.44c.29-.16.68-.3 1.15-.3.51 0 .94.14 1.19.45.19.23.24.51.24.9v1.47c0 .33.05.55.13.72h-.65c-.05-.09-.08-.21-.08-.39-.26.27-.64.48-1.15.48-.66 0-1.13-.39-1.13-1.03 0-.92.86-1.11 1.48-1.19.63-.08.75-.1.75-.34 0-.3-.31-.48-.77-.48s-.81.16-1.1.34l-.05-.63zm1.94 1.49c-.15.07-.32.1-.68.14-.49.06-.94.16-.94.64 0 .28.19.49.53.49.31 0 .8-.15 1.08-.64v-.63z"/><path d="m163.47 169.9c-.27-.19-.56-.3-.89-.3-.49 0-.8.3-.8.68 0 .41.29.55.77.72.65.23 1.33.46 1.33 1.37 0 .81-.64 1.4-1.62 1.4-.5 0-.94-.12-1.35-.39l.2-.62c.34.24.7.38 1.1.38.51 0 .98-.24.98-.72 0-.45-.36-.65-.9-.82-.77-.25-1.2-.58-1.2-1.29 0-.79.62-1.34 1.47-1.34.55 0 .91.2 1.08.29l-.16.64z"/><path d="m167.49 173.53c-.26.14-.6.24-1.03.24-1.17 0-1.8-.76-1.8-1.79 0-1.13.78-1.84 1.77-1.84.58 0 .94.23 1.06.3l-.17.59c-.1-.08-.37-.3-.84-.3-.63 0-1.16.41-1.16 1.22 0 .66.36 1.21 1.18 1.21.52 0 .87-.22 1-.3v.66z"/><path d="m169.16 169.75h-.74v-.73h.74zm-.05 3.93h-.65v-3.44h.65z"/><path d="m170.74 172.18c.05.7.48 1.01 1.13 1.01.53 0 .83-.16 1.08-.3v.66c-.18.08-.53.22-1.09.22-1.41 0-1.76-1.06-1.76-1.79 0-1.1.68-1.84 1.59-1.84.41 0 1.07.16 1.38.93.16.38.17.83.17 1.1h-2.49zm1.83-.53c-.08-.85-.71-.92-.91-.92-.4 0-.85.25-.92.92z"/><path d="m174.14 173.68v-3.44h.64v.41c.24-.33.62-.51 1.03-.51.54 0 .86.29.99.55.14.28.16.56.16.83v2.15h-.65v-2.15c0-.4-.11-.8-.67-.8-.34 0-.84.2-.84.99v1.95h-.65z"/><path d="m180.7 173.53c-.26.14-.6.24-1.03.24-1.17 0-1.8-.76-1.8-1.79 0-1.13.78-1.84 1.77-1.84.58 0 .94.23 1.06.3l-.17.59c-.1-.08-.37-.3-.84-.3-.63 0-1.16.41-1.16 1.22 0 .66.36 1.21 1.18 1.21.52 0 .87-.22 1-.3v.66z"/><path d="m182.09 172.18c.05.7.48 1.01 1.13 1.01.53 0 .83-.16 1.08-.3v.66c-.18.08-.53.22-1.09.22-1.41 0-1.76-1.06-1.76-1.79 0-1.1.68-1.84 1.59-1.84.41 0 1.07.16 1.38.93.16.38.17.83.17 1.1h-2.49zm1.83-.53c-.08-.85-.71-.92-.91-.92-.4 0-.85.25-.92.92z"/><path d="m186.32 172.83v.8c0 .54-.3.66-.83.68v-.36c.38-.01.39-.15.4-.29h-.4v-.83z"/><path d="m192.31 170.98v.62h-1.98v1.45h2.25v.63h-2.94v-4.61h2.86v.63h-2.17v1.29h1.98z"/><path d="m193.47 173.68v-4.83h.65v1.77c.19-.23.48-.48 1.02-.48.49 0 .84.26.99.55.12.24.16.52.16.83v2.16h-.65v-2.13c0-.51-.17-.81-.67-.81-.31 0-.84.16-.84.99v1.95h-.65z"/><path d="m198.11 169.75h-.74v-.73h.74zm-.05 3.93h-.65v-3.44h.65z"/><path d="m201.22 173.68v-1.99c0-.44-.05-.95-.58-.95-.3 0-.79.2-.79.93v2.01h-.65v-3.44h.63v.42c.12-.16.37-.51.95-.51.64 0 .86.44.93.59.28-.44.65-.59 1.08-.59.5 0 .82.26.95.54.12.26.15.54.15.9v2.1h-.65v-2.15c0-.42-.13-.8-.6-.8-.27 0-.78.15-.78 1.02v1.92h-.65z"/><path d="m205.46 172.18c.05.7.48 1.01 1.13 1.01.53 0 .83-.16 1.08-.3v.66c-.18.08-.53.22-1.09.22-1.41 0-1.76-1.06-1.76-1.79 0-1.1.68-1.84 1.59-1.84.41 0 1.07.16 1.38.93.16.38.17.83.17 1.1h-2.49zm1.84-.53c-.08-.85-.71-.92-.91-.92-.4 0-.85.25-.92.92z"/><path d="m215.02 169.07v2.7c0 .48 0 2.01-1.95 2.01s-1.96-1.35-1.96-2.01v-2.7h.7v2.66c0 .5 0 1.42 1.26 1.42s1.25-.93 1.25-1.42v-2.66z"/><path d="m216.11 173.68v-3.44h.64v.41c.24-.33.62-.51 1.03-.51.53 0 .86.29.99.55.14.28.16.56.16.83v2.15h-.65v-2.15c0-.4-.11-.8-.67-.8-.34 0-.84.2-.84.99v1.95h-.65z"/><path d="m220.76 169.75h-.74v-.73h.74zm-.05 3.93h-.65v-3.44h.65z"/><path d="m223.84 170.24h.68l-1.09 3.44h-.82l-1.09-3.44h.69l.81 2.76z"/><path d="m225.75 172.18c.05.7.48 1.01 1.13 1.01.53 0 .83-.16 1.08-.3v.66c-.18.08-.53.22-1.09.22-1.41 0-1.76-1.06-1.76-1.79 0-1.1.68-1.84 1.59-1.84.41 0 1.07.16 1.38.93.16.38.17.83.17 1.1h-2.49zm1.83-.53c-.08-.85-.71-.92-.91-.92-.4 0-.85.25-.92.92z"/><path d="m229.17 173.68v-3.44h.63v.41c.26-.38.6-.52 1.08-.51v.6c-.65-.03-1.06.24-1.06 1.01v1.93z"/><path d="m233.69 170.96c-.23-.13-.45-.23-.77-.23-.26 0-.59.09-.59.42 0 .31.18.35.81.55.52.16.92.4.92.99 0 .8-.75 1.07-1.41 1.07-.37 0-.77-.08-1.14-.28l.21-.57c.29.16.56.26.95.26.55 0 .73-.24.73-.46 0-.31-.2-.37-.83-.57-.54-.17-.91-.4-.91-.97 0-.63.54-1.02 1.23-1.02.34 0 .63.08.95.23l-.17.59z"/><path d="m235.7 169.75h-.74v-.73h.74zm-.04 3.93h-.65v-3.44h.65z"/><path d="m236.93 169.24h.65v.99h1v.59h-1v1.81c0 .31.02.54.49.54.16 0 .37-.02.46-.04v.59c-.13.01-.34.04-.59.04-1.02 0-1.02-.6-1.02-1.11v-1.83h-.42v-.59h.42v-.99z"/><path d="m240.29 173.36-1.25-3.13h.69l.89 2.31.9-2.31h.69l-1.99 4.99h-.65l.73-1.86z"/><path d="m195.39 143.4c-3.49-1.22-5.6-2.23-5.6-5.18 0-2.78 2.23-4.93 5.77-4.93 2.38 0 4.42.79 6.38 2.15v-5.25c-1.42-.68-3.61-1.45-6.55-1.45-6.15 0-10.61 4.04-10.61 9.73 0 5.09 3.12 7.49 8.71 9.3 3.92 1.26 6.48 2.69 6.48 5.94 0 3.45-3.41 5.22-7.07 5.22-2.89 0-5.54-1.05-7.97-2.76v5.33c2.56 1.34 5.27 1.98 8.31 1.98 7.12 0 11.75-4.29 11.75-10.15 0-6.61-4.88-8.3-9.6-9.94z"/><path d="m17.18 213.53v-1.9h-8.51c.6-.55.87-.89 1.12-1.17h3.28c1.26 0 1.63-.53 2.04-3l-2.04-.3c-.05.16-.18.89-.23 1.03-.07.27-.25.46-.53.46h-3.65c-.16 0-.37 0-.37-.46v-1.83h-2.06v2.5c0 .9.41 1.31.89 1.51-2.11 1.88-3.83 2.64-6.95 3.28l1.08 1.97c.85-.23 1.97-.53 3.53-1.35.73.69 1.63 1.35 2.98 2.09-1.01.27-3.3.85-6.42.85-.57 0-.96-.02-1.35-.05l.69 2.34c1.49-.07 5.5-.3 9.88-1.88 3.17 1.24 6.51 1.83 9.91 2.02l.89-2.32c-1.38-.02-4.17-.05-8.07-.92 2.27-1.24 3.33-2.32 3.88-2.87zm-6.88 1.97c-1.88-.66-3.1-1.42-3.81-1.97h7.22c-.46.39-1.35 1.19-3.42 1.97z"/><path d="m2.61 204.99h6.99l-1.01.87c.76.71.94.92 2.02 2.13l1.56-1.44c-.8-.89-.87-.94-1.61-1.56h8.03v2.25c-.64-.71-.98-1.03-1.42-1.4l-1.79 1.22c.83.87 2.71 3.19 3.3 4.29l2.02-1.31c-.39-.62-.8-1.31-1.93-2.59h2.09v-4.36h-3.69c.71-1.06 1.26-2.09 1.54-2.68 1.01-.16 1.24-.23 1.74-.37l-1.26-2.06c-4.68 1.28-13.32 1.4-18.46 1.4l.5 2.02c.32 0 1.42-.02 1.81-.02.18.69.27.99.48 1.72h-3.22v4.36h2.32v-2.45zm13.37-4.26c-.44.8-.99 1.81-1.35 2.36h-2.87c-.05-.28-.34-1.67-.41-2 .96-.05 3.92-.3 4.63-.37zm-6.81.5c.11.53.27 1.31.39 1.86h-3.69c-.16-.6-.18-.69-.5-1.77 1.28-.02 2.55-.05 3.81-.09z"/><path d="m.5 210.04 1.79 1.4c1.61-1.28 2.91-3.05 3.53-4.47l-1.9-.73c-.3.55-1.38 2.48-3.42 3.81z"/><path d="m62.61 206.03h9.08v-2.43h-9.52v-5.48h-2.55v5.48h-9.31v2.43h9.08c-.57 2.75-2.73 8.51-9.54 11.1l1.6 2.39c4.63-1.67 8-5.94 9.59-10.11.78 2.73 2.61 7.15 9.56 10.25l1.63-2.52c-5.96-1.63-8.69-6.21-9.63-11.1z"/><path d="m101.67 208.11h8.71c-.14 4.77-1.42 7.25-7.64 8.3l1.05 2.32c5.48-1.12 9.01-3.32 9.22-10.62h7.38v-2.38h-18.74v2.38z"/><path d="m103.51 199.93h12.64v2.39h-12.64z"/><path d="m124.23 207.56h19.68v2.68h-19.68z"/><path d="m146.93 207.08 1.67 1.95c1.49-.94 2.16-1.58 2.8-2.18 3.03 1.51 4.86 2.77 6.74 4.36-.87.94-3.9 3.9-9.68 5.21l1.28 2.34c13.94-3.58 15.09-14.88 15.46-18.53h-12.25c-1.31 3-3.28 5.16-6.03 6.86zm15.25-4.49c-.48 3-1.31 4.93-2.48 6.72-2.66-2.2-5.8-3.69-6.79-4.15.48-.6.94-1.19 1.77-2.57z"/><path d="m184.99 199.15h-2.59v4.2h-7.27v-4.1h-2.61v4.1h-3.69v2.45h3.69v5.89h2.61v-5.89h7.27v2.59c0 6.08-4.79 7.34-9.24 7.84l.94 2.43c3.76-.51 10.89-1.86 10.89-10.27v-2.59h3.81v-2.45h-3.81z"/><path d="m191.22 210.27 1.26 2.34c2.32-.8 4.75-1.77 8.51-4.15v10.16h2.73v-12.11c2.98-2.39 4.43-3.85 6.24-5.96l-2.34-1.58c-4.29 5.27-9.91 9.31-16.4 11.31z"/><path d="m224.42 203.41h7.04v-2.5h-16.67v2.5h6.95v11.03h-8.14v2.53h19.05v-2.53h-8.23z"/><path d="m236.54 215.34.53 2.82c13.44-1.08 16.83-11.26 18.07-14.95l-2.25-1.61c-2.64 8.78-7.25 13.07-16.35 13.74z"/><path d="m244.55 203.69c-1.1-.71-3.39-2.04-7.25-3.23l-1.24 2.25c3.42 1.12 5.64 2.39 7.11 3.37z"/><path d="m273.58 200.27h-15.2v2.43h11.81c-3.39 9.06-10.3 12.5-13.03 13.67l1.49 2.13c2.8-1.24 5.99-3.39 9.13-6.83 3.97 3.49 5.94 5.66 7.02 6.83l2.16-2.09c-3.42-3.37-6.33-5.69-7.61-6.67 1.49-2.09 3.19-4.79 4.24-9.47z"/><path d="m290.22 210.8 1.51 2.02c4.38-2.06 6.42-4.98 6.88-9.86l-11.76.96v-4.77h-2.59v4.98l-4.84.41.16 2.52 4.68-.44v7.13c0 2.2.5 4.36 4.82 4.36h5.27c2.02 0 3.05-.14 3.81-.23l-.02-2.55c-1.31.21-2.73.32-3.92.32h-4.82c-1.93 0-2.55-.25-2.55-2.11v-7.15l8.58-.78c-.6 1.81-1.54 3.74-5.21 5.18z"/><path d="m310.39 203.69c-1.1-.71-3.39-2.04-7.25-3.23l-1.24 2.25c3.42 1.12 5.64 2.39 7.11 3.37z"/><path d="m302.39 215.34.53 2.82c13.44-1.08 16.83-11.26 18.07-14.95l-2.25-1.61c-2.64 8.78-7.25 13.07-16.35 13.74z"/><path d="m323.14 207.08 1.67 1.95c1.49-.94 2.16-1.58 2.8-2.18 3.03 1.51 4.86 2.77 6.74 4.36-.87.94-3.9 3.9-9.68 5.21l1.28 2.34c13.94-3.58 15.09-14.88 15.46-18.53h-12.25c-1.31 3-3.28 5.16-6.03 6.86zm15.25-4.49c-.48 3-1.31 4.93-2.48 6.72-2.66-2.2-5.8-3.69-6.79-4.15.48-.6.94-1.19 1.77-2.57z"/><path d="m345.19 207.56h19.68v2.68h-19.68z"/><path d="m120.07 202.32-1.44-4.33h-2.01l1.44 4.33z"/><path d="m45.93 200.41-1.08-2.11c-3.69 1.1-8.83 1.26-11.83 1.19l.46 2.11c5.53-.14 8.58-.32 12.45-1.19z"/><path d="m32.76 214.6c-.39-.46-.67-.78-1.65-1.6 1.12-3.07 1.61-6.26 1.65-10.76h-3.21c.25-2.06.34-3.03.41-3.81l-2.29-.18c-.02.8-.02 1.61-.3 3.99h-2.04v2.18h1.72c-.76 4.59-1.35 6.08-1.72 6.99.78.5 1.76 1.15 3.12 2.27-1.19 2.27-2.36 3.37-3.07 4.04l1.65 1.79c.71-.76 1.88-2.04 3.07-4.29.55.6.73.83 1.08 1.31zm-3.42-3.02c-.8-.6-1.1-.76-1.56-1.03.27-.87.92-2.89 1.44-6.12h1.54c-.11 1.19-.44 4.31-1.42 7.15z"/><path d="m45.15 212.75v-1.63h-7.68c.05-.28.14-.64.23-1.22h8.65v-1.79h-8.42c.02-.25.09-.92.11-1.17h7.89v-1.86h-12.77v1.86h2.61c-.02.37-.02.44-.07 1.17h-3.07v1.79h2.87c-.46 2.73-1.45 5.43-4.75 7.84l1.7 1.9c3.23-3 4.06-5.23 4.54-6.7h5.73c-.5.76-.85 1.28-2.16 2.18-.96-.66-1.49-1.22-1.99-1.74l-1.83.87c.44.6.92 1.24 1.81 2.02-1.58.71-2.75.92-3.65 1.08l1.01 2.29c1.06-.37 2.75-.96 4.5-2.02 1.72 1.03 3.35 1.56 5.07 1.95l1.24-2.29c-.96-.11-2.45-.27-4.24-1.08 1.74-1.45 2.32-2.68 2.68-3.46z"/><path d="m34.4 204.58h2.32l-.81-2.45h-2.33z"/><path d="m38.48 204.58h2.32l-.81-2.45h-2.33z"/><path d="m44.41 204.55 1.51-3.14h-2.32l-1.51 3.14z"/><path d="m87.49 211.3c1.81-.73 4.54-2.5 5.85-3.67v-1.9h-14.13v2.16h10.21c-1.03.92-2.61 1.56-3.39 1.81h-1.01v1.79h-9.61v2.25h9.61v2.84c0 .41 0 .73-.64.73h-3.69l.44 2.43h4.49c.23 0 1.88-.25 1.88-1.9v-4.1h9.63v-2.25h-9.63v-.18z"/><path d="m78.34 204.01h15.94v3.07h2.31v-5.25h-2.98l1.83-3.5h-2.64l-1.82 3.5h-2.85l-1.17-3.5h-2.63l1.16 3.5h-3.57l-1.17-3.5h-2.64l1.17 3.5h-3.26v5.25h2.32z"/><path d="m119.95 197.99 1.44 4.33h2.01l-1.45-4.33z"/></g><path d="m258.64 33.6c-5.76-21.5-31.92-34.19-63.92-33.58 18.66 4.96 32.38 15.61 36.36 30.46 7.52 28.07-22.58 60.52-67.24 72.49-10.45 2.8-20.78 4.23-30.56 4.42 16.6 4.41 37.09 4.33 58.12-1.31 44.66-11.97 74.76-44.42 67.24-72.49z" fill="#0091db"/><path d="m187.93 68.18c-30.27 17.47-63.71 16.22-74.7-2.81-5.91-10.23-4.11-23.52 3.51-36.33-18.35 16.98-26.11 38.4-17.5 53.32 10.98 19.02 44.43 20.28 74.7 2.8 13.99-8.08 24.85-18.74 31.41-29.76-5.05 4.67-10.89 9-17.42 12.77z" fill="#6fba2c"/><path d="m201.73 18.34c-5-13.73-26.75-18.41-48.59-10.46-1.69.62-3.33 1.29-4.92 2.01 13.66-3.46 26.34.06 29.49 8.72 3.5 9.61-6.06 21.91-21.35 27.48-15.29 5.56-30.52 2.29-34.02-7.32-.15-.41-.28-.83-.38-1.26-.63 3.3-.45 6.56.67 9.63 5 13.73 26.75 18.41 48.59 10.46s35.5-25.52 30.5-39.25z" fill="#f8b500"/></svg>