<svg viewBox="0 0 255.12 85.52" xmlns="http://www.w3.org/2000/svg"><g fill="#231815"><path d="m13.35 50.36h-12.58v-49.25h14.03c5.49 0 9.35.27 11.57.81s4.1 1.46 5.65 2.76c1.82 1.5 3.2 3.38 4.15 5.63s1.43 4.76 1.43 7.52c0 2.94-.47 5.53-1.41 7.76s-2.33 4.06-4.17 5.5c-1.39 1.07-3.03 1.85-4.91 2.32-1.89.47-4.9.7-9.05.7h-4.71zm0-27.08h2.56c3.23 0 5.48-.44 6.76-1.33s1.92-2.4 1.92-4.52-.63-3.54-1.89-4.41c-1.25-.88-3.47-1.32-6.66-1.32h-2.69v11.57z"/><path d="m44.43 50.36v-49.25h30.18v10.8h-17.09v8.54h16.11v10.57h-16.11v8.3h17.09v11.04z"/><path d="m155.04 50.36h-12.58v-49.25h14.03c5.5 0 9.35.27 11.57.81s4.1 1.46 5.65 2.76c1.82 1.5 3.2 3.38 4.15 5.63s1.43 4.76 1.43 7.52c0 2.94-.47 5.53-1.41 7.76s-2.33 4.06-4.17 5.5c-1.39 1.07-3.03 1.85-4.91 2.32s-4.9.7-9.05.7h-4.71zm0-27.08h2.56c3.23 0 5.48-.44 6.76-1.33s1.92-2.4 1.92-4.52-.63-3.54-1.89-4.41c-1.25-.88-3.48-1.32-6.66-1.32h-2.69v11.57z"/><path d="m186.12 50.36v-49.25h13.42v37.74h16.68v11.51z"/><path d="m222.78 50.36v-49.25h30.18v10.8h-17.09v8.54h16.11v10.57h-16.11v8.3h17.09v11.04z"/><path d="m.77 81.6c1.31.84 3.19 1.48 5.2 1.48 2.99 0 4.73-1.54 4.73-3.86 0-2.08-1.21-3.32-4.26-4.46-3.69-1.34-5.97-3.28-5.97-6.44 0-3.52 2.92-6.14 7.31-6.14 2.28 0 3.99.54 4.96 1.11l-.8 2.38c-.71-.44-2.21-1.07-4.26-1.07-3.09 0-4.26 1.84-4.26 3.39 0 2.11 1.38 3.15 4.49 4.36 3.83 1.51 5.74 3.32 5.74 6.64 0 3.49-2.55 6.54-7.88 6.54-2.18 0-4.56-.67-5.77-1.48l.77-2.45z"/><path d="m39.91 85.52c-6 0-10.17-4.63-10.17-11.47s4.43-11.87 10.47-11.87 10.19 4.73 10.19 11.44c0 7.75-4.73 11.91-10.47 11.91h-.03zm.14-2.38c4.63 0 7.24-4.26 7.24-9.39 0-4.5-2.35-9.19-7.21-9.19s-7.28 4.53-7.28 9.42 2.62 9.16 7.21 9.16h.03z"/><path d="m67.58 62.54h12.18v2.45h-9.22v7.51h8.52v2.41h-8.52v10.23h-2.96v-22.61z"/><path d="m101.66 65.03h-6.88v-2.48h16.74v2.48h-6.91v20.12h-2.95z"/><path d="m138.02 85.15-5.73-22.61h3.08l2.68 11.44c.67 2.85 1.27 5.63 1.68 7.81h.07c.37-2.25 1.07-4.93 1.85-7.85l3.02-11.41h3.05l2.75 11.47c.64 2.72 1.24 5.37 1.57 7.75h.07c.47-2.48 1.1-5 1.81-7.81l2.99-11.41h2.99l-6.41 22.61h-3.05l-2.85-11.74c-.7-2.91-1.17-5.13-1.48-7.41h-.07c-.37 2.28-.9 4.46-1.74 7.38l-3.22 11.77h-3.05z"/><path d="m181.49 78.04-2.35 7.11h-3.02l7.68-22.61h3.52l7.71 22.61h-3.12l-2.42-7.11h-8.02zm7.42-2.28-2.25-6.51c-.47-1.48-.8-2.82-1.14-4.13h-.1c-.3 1.31-.67 2.72-1.11 4.1l-2.21 6.54z"/><path d="m211.78 62.88c1.48-.3 3.62-.5 5.6-.5 3.12 0 5.17.61 6.58 1.88 1.1.98 1.77 2.52 1.77 4.29 0 2.95-1.91 4.93-4.26 5.73v.1c1.71.61 2.75 2.21 3.32 4.56.74 3.15 1.27 5.33 1.71 6.21h-3.02c-.37-.64-.87-2.59-1.48-5.4-.67-3.12-1.91-4.29-4.56-4.4h-2.75v9.79h-2.92v-22.27zm2.92 10.26h2.99c3.12 0 5.1-1.71 5.1-4.29 0-2.92-2.12-4.19-5.2-4.19-1.41 0-2.38.13-2.88.27v8.22z"/><path d="m254.07 74.55h-8.75v8.15h9.79v2.45h-12.75v-22.61h12.25v2.45h-9.29v7.14h8.75z"/></g><path d="m108.88 15.4c0 3.28-2.65 5.92-5.92 5.92s-5.92-2.65-5.92-5.92 2.65-5.92 5.92-5.92 5.92 2.66 5.92 5.92" fill="#fff"/><path d="m107.66 13.38c0 1.67-1.36 3.03-3.03 3.03s-3.03-1.36-3.03-3.03 1.35-3.02 3.03-3.02 3.03 1.35 3.03 3.02" fill="#f8b62d"/><path d="m124.73 12.98c0 3.28-2.65 5.92-5.92 5.92s-5.92-2.65-5.92-5.92 2.65-5.92 5.92-5.92 5.92 2.65 5.92 5.92" fill="#fff"/><path d="m123.47 10.96c0 1.67-1.35 3.03-3.03 3.03s-3.02-1.36-3.02-3.03 1.36-3.03 3.02-3.03 3.03 1.35 3.03 3.03" fill="#f8b62d"/><path d="m13.35 50.36h-12.58v-49.25h14.03c5.49 0 9.35.27 11.57.81s4.1 1.46 5.65 2.76c1.82 1.5 3.2 3.38 4.15 5.63s1.43 4.76 1.43 7.52c0 2.94-.47 5.53-1.41 7.76s-2.33 4.06-4.17 5.5c-1.39 1.07-3.03 1.85-4.91 2.32-1.89.47-4.9.7-9.05.7h-4.71zm0-27.08h2.56c3.23 0 5.48-.44 6.76-1.33s1.92-2.4 1.92-4.52-.63-3.54-1.89-4.41c-1.25-.88-3.47-1.32-6.66-1.32h-2.69v11.57z" fill="#231815"/><path d="m44.43 50.36v-49.25h30.18v10.8h-17.09v8.54h16.11v10.57h-16.11v8.3h17.09v11.04z" fill="#231815"/><path d="m155.04 50.36h-12.58v-49.25h14.03c5.5 0 9.35.27 11.57.81s4.1 1.46 5.65 2.76c1.82 1.5 3.2 3.38 4.15 5.63s1.43 4.76 1.43 7.52c0 2.94-.47 5.53-1.41 7.76s-2.33 4.06-4.17 5.5c-1.39 1.07-3.03 1.85-4.91 2.32s-4.9.7-9.05.7h-4.71zm0-27.08h2.56c3.23 0 5.48-.44 6.76-1.33s1.92-2.4 1.92-4.52-.63-3.54-1.89-4.41c-1.25-.88-3.48-1.32-6.66-1.32h-2.69v11.57z" fill="#231815"/><path d="m186.12 50.36v-49.25h13.42v37.74h16.68v11.51z" fill="#231815"/><path d="m222.78 50.36v-49.25h30.18v10.8h-17.09v8.54h16.11v10.57h-16.11v8.3h17.09v11.04z" fill="#231815"/><path d="m.77 81.6c1.31.84 3.19 1.48 5.2 1.48 2.99 0 4.73-1.54 4.73-3.86 0-2.08-1.21-3.32-4.26-4.46-3.69-1.34-5.97-3.28-5.97-6.44 0-3.52 2.92-6.14 7.31-6.14 2.28 0 3.99.54 4.96 1.11l-.8 2.38c-.71-.44-2.21-1.07-4.26-1.07-3.09 0-4.26 1.84-4.26 3.39 0 2.11 1.38 3.15 4.49 4.36 3.83 1.51 5.74 3.32 5.74 6.64 0 3.49-2.55 6.54-7.88 6.54-2.18 0-4.56-.67-5.77-1.48l.77-2.45z" fill="#231815"/><path d="m39.91 85.52c-6 0-10.17-4.63-10.17-11.47s4.43-11.87 10.47-11.87 10.19 4.73 10.19 11.44c0 7.75-4.73 11.91-10.47 11.91h-.03zm.14-2.38c4.63 0 7.24-4.26 7.24-9.39 0-4.5-2.35-9.19-7.21-9.19s-7.28 4.53-7.28 9.42 2.62 9.16 7.21 9.16h.03z" fill="#231815"/><path d="m67.58 62.54h12.18v2.45h-9.22v7.51h8.52v2.41h-8.52v10.23h-2.96v-22.61z" fill="#231815"/><path d="m101.66 65.03h-6.88v-2.48h16.74v2.48h-6.91v20.12h-2.95z" fill="#231815"/><path d="m138.02 85.15-5.73-22.61h3.08l2.68 11.44c.67 2.85 1.27 5.63 1.68 7.81h.07c.37-2.25 1.07-4.93 1.85-7.85l3.02-11.41h3.05l2.75 11.47c.64 2.72 1.24 5.37 1.57 7.75h.07c.47-2.48 1.1-5 1.81-7.81l2.99-11.41h2.99l-6.41 22.61h-3.05l-2.85-11.74c-.7-2.91-1.17-5.13-1.48-7.41h-.07c-.37 2.28-.9 4.46-1.74 7.38l-3.22 11.77h-3.05z" fill="#231815"/><path d="m181.49 78.04-2.35 7.11h-3.02l7.68-22.61h3.52l7.71 22.61h-3.12l-2.42-7.11h-8.02zm7.42-2.28-2.25-6.51c-.47-1.48-.8-2.82-1.14-4.13h-.1c-.3 1.31-.67 2.72-1.11 4.1l-2.21 6.54z" fill="#231815"/><path d="m211.78 62.88c1.48-.3 3.62-.5 5.6-.5 3.12 0 5.17.61 6.58 1.88 1.1.98 1.77 2.52 1.77 4.29 0 2.95-1.91 4.93-4.26 5.73v.1c1.71.61 2.75 2.21 3.32 4.56.74 3.15 1.27 5.33 1.71 6.21h-3.02c-.37-.64-.87-2.59-1.48-5.4-.67-3.12-1.91-4.29-4.56-4.4h-2.75v9.79h-2.92v-22.27zm2.92 10.26h2.99c3.12 0 5.1-1.71 5.1-4.29 0-2.92-2.12-4.19-5.2-4.19-1.41 0-2.38.13-2.88.27v8.22z" fill="#231815"/><path d="m254.07 74.55h-8.75v8.15h9.79v2.45h-12.75v-22.61h12.25v2.45h-9.29v7.14h8.75z" fill="#231815"/><path d="m132.08 15.88c-1.31-3.12-3.2-5.89-5.67-8.3-2.46-2.43-5.32-4.3-8.56-5.61-3.24-1.32-6.61-1.97-10.11-1.97s-6.89.65-10.11 1.97c-3.22 1.31-6.05 3.18-8.5 5.61-2.53 2.44-4.45 5.22-5.77 8.32-1.31 3.11-1.97 6.42-1.97 9.93s.66 6.81 1.97 9.93 3.23 5.9 5.77 8.34c2.45 2.43 5.28 4.29 8.5 5.6 3.22 1.32 6.59 1.97 10.11 1.97s6.83-.65 10.06-1.97c3.23-1.31 6.1-3.18 8.61-5.6 2.49-2.44 4.38-5.21 5.69-8.3 1.3-3.1 1.95-6.41 1.95-9.96s-.66-6.83-1.97-9.95zm-13.27-8.82c3.27 0 5.92 2.65 5.92 5.92s-2.65 5.92-5.92 5.92-5.92-2.65-5.92-5.92 2.65-5.92 5.92-5.92zm-21.77 8.34c0-3.26 2.65-5.92 5.92-5.92s5.92 2.66 5.92 5.92-2.65 5.92-5.92 5.92-5.92-2.65-5.92-5.92zm18.36 22.37c-1.21.24-2.41.36-3.56.36-8.69 0-12.57-6.64-12.73-6.92-.17-.29-.18-.64-.04-.95.14-.3.42-.52.75-.59l25.92-5.09c.3-.06.63.02.87.22.24.21.38.5.37.82 0 .1-.33 9.94-11.58 12.14z" fill="#f8b62d"/></svg>