<svg viewBox="0 0 2291.8 340.16" xmlns="http://www.w3.org/2000/svg" xmlns:xlink="http://www.w3.org/1999/xlink"><linearGradient id="a" gradientUnits="userSpaceOnUse" x1="210.41" x2="-127.75" y1="466.18" y2="127.55"><stop offset="0" stop-color="#1255a3"/><stop offset=".2" stop-color="#1255a3"/><stop offset=".85" stop-color="#5fd2ff"/><stop offset="1" stop-color="#5fd2ff"/></linearGradient><linearGradient id="b" x1="365.31" x2="27.15" xlink:href="#a" y1="311.5" y2="-27.13"/><linearGradient id="c" x1="329.51" x2="-8.65" xlink:href="#a" y1="347.25" y2="8.62"/><g fill="#1255a3"><path d="m1513.92 230.16c-30.52-27.91-62-52.93-71.4-60.31 38.64-54 47.22-95.42 50.07-109.19l.93-4.47h-195.38v41.25h136.11c-34.12 81.54-97.1 122.38-144.42 142.36l-2.32 1v45.87l5.34-2.11c44.05-17.45 94.5-51.33 124.21-83.19 29.42 24.76 74.19 64 96.74 90.18z"/><path d="m1737.14 284c32.54-73.17 66.86-168.24 81.86-233.28h49.53c-33.72 118.82-59.8 187.12-59.8 187.12 42.62-1.93 56.78-3.3 102.53-7.19 0 0-12.25-26.89-36-63.93l52.41.12c24.21 33.63 52.86 104.13 59.78 122.41l-51.11.3c-4.45-12.23-5.42-13-8.43-20.41-46.38 6.3-116.19 11.15-190.77 14.86z"/><path d="m1756.53 125.79v40.64h-86.53l-.28 4.4c-4.36 68.38-43.65 117.74-124.72 129.17v-43.1c51.07-9.5 76.39-34.17 79.41-85.8l.28-4.67h-100.49v-40.64zm-22-69.77v40.66h-188.4v-40.68z"/><path d="m736.42 87.87v-37.13h-243.2v37.13h103.3v17.78h-103.3v192.51h40v-156.16h63.26v73.16h-14.9v-62.55h-34.74v98.39h136v-98.39h-35.08v62.56h-14.36v-73.17h63.25v111.35c0 5.23-1.43 5.46-4.68 5.46h-31.82l.06 39.35h50.42c16.93 0 25.79-13.26 25.79-26.33v-166.18h-103v-17.78z"/><path d="m871.23 297.62h33.41v-50.2h17.36v48.63h33.73v-48.63h18v8.49c0 3.35.26 6.49-.58 7s-6.32.47-7.56.47l-.06 34.26h17.87c16.8 0 24.81-8.9 24.81-25v-132h-137zm102.48-89.8v11.83h-18v-11.83zm0-37.59v12.77h-18v-12.77zm-69.07 12.77v-12.77h17.36v12.77zm17.36 24.82v11.83h-17.36v-11.83z"/><path d="m833 90.34h30.12v11.37h-34.5v104c0 9.94.32 30.5-8.13 37.32l-.05 56.83c27.87-16.26 43.32-45.5 43.32-92v-74.43h151.66v-31.72h-43.66v-11.37h37.85v-32.26h-37.85v-15.5h-38.47v15.5h-31.46v-15.5h-38.71v15.5h-30.12zm-2-47.82h-38.48l-.76 5c-2.23 15.47-9 62.51-36.37 96l-.83 1v58.73l6.43-6.75c1.22-1.29 2.86-2.95 4.73-4.85 3.72-3.79 8.29-8.39 12.22-12.76v118.73h36.42v-178.73a374.67 374.67 0 0 0 16.64-76.37zm102.29 47.82v11.37h-31.46v-11.37z"/><path d="m2231.79 230.16c-30.52-27.91-62-52.93-71.41-60.31 38.66-54 47.23-95.42 50.08-109.19l.92-4.47h-195.38v41.25h136.1c-34.1 81.56-97.1 122.38-144.4 142.36l-2.32 1v45.87l5.33-2.11c44.05-17.45 94.5-51.33 124.23-83.19 29.41 24.76 74.18 64 96.72 90.18z"/><path d="m2222.81 56.19h28.77v52.24h-28.77z"/><path d="m2263.04 56.19h28.76v52.24h-28.76z"/><path d="m1133.51 192 8.1 3v-47.39l-2.34-1c-36.61-15.67-78.69-22.07-90.71-23.64l-4.37-.59-.09 43.77 3.15.61c39.59 7.7 55.17 13.57 86.26 25.24z"/><path d="m1232 98.49c-17.27 91.32-77.43 137.51-184 141.13l-3.74.13-.09 47.05 4.14-.26c68.74-4.55 120.33-21.5 157.71-51.83 37.06-30.07 61.19-74.14 73.77-134.72l1-4.65h-48.25z"/><path d="m1134.06 122.39 6.48 2.43v-45.06l-1.66-.71c-36.5-15.6-78.43-22-90.41-23.56l-3.08-.41-.08 41.52 2.22.45c39.72 7.72 55.36 13.61 86.53 25.34z"/></g><path d="m0 313.37a26.8 26.8 0 0 0 26.79 26.79h82.5c-21.02-78.36-85.41-130.52-109.29-147.62z" fill="url(#a)"/><path d="m26.79 0a26.79 26.79 0 0 0 -26.79 26.79v71.45c95.06 77.22 109.78 190 111.58 229.79 6.76-57.42 40.71-209 222.57-318.14a26.73 26.73 0 0 0 -20.78-9.89z" fill="url(#b)"/><path d="m114.13 340.16h199.24a26.8 26.8 0 0 0 26.79-26.79v-164c-31.79 8.3-168.44 51.4-226 190.84" fill="url(#c)"/><path d="m334.15 9.89c-181.85 109.17-215.81 260.72-222.57 318.11-1.8-39.78-16.52-152.54-111.58-229.76v94.31c23.88 17.1 88.26 69.25 109.28 147.6h4.84c57.59-139.42 194.24-182.53 226-190.83v-122.53a26.58 26.58 0 0 0 -6-16.9" fill="#fff"/></svg>