<svg viewBox="0 0 275.53 129.13" xmlns="http://www.w3.org/2000/svg"><g fill="#007f68"><path d="m128.31 41.33h19.84v34.62h-19.84z"/><path d="m168.02 41.33h19.84v34.62h-19.84z"/><path d="m88.41 41.33h19.84v34.62h-19.84z"/><path d="m147.86 14.39s8.29-6.51 13.3-10.64l.3-.24c2.75-2.2 6.24-3.51 10.04-3.51 8.33 0 15.16 6.31 15.98 14.42.21 1.69.32 3.62.32 5.8v15.27h-20.03v-14.95l-19.46 14.95h-20.17v-15.3l-19.89 15.27h-19.84v-34.62h19.84v13.55s8.23-6.51 13.24-10.63l.3-.24c2.75-2.2 6.24-3.51 10.03-3.51 8.33 0 15.21 6.28 16.03 14.39z"/><path d="m28.28 77.41c-15.8 0-28.28-12.83-28.28-28.63v-47.52h19.6s0 38.1 0 46.06c0 5.53 4.34 10.02 9.87 10.02l.74.03c3.54 0 11.65-.03 15.19-.03 5.53 0 9.87-4.49 9.87-10.02 0-7.96 0-46.06 0-46.06h19.6v47.52c0 15.8-12.75 28.63-28.55 28.63 0 0-6.7 0-18.06 0z"/><path d="m199.37 29.49c0-15.8 12.83-28.28 28.63-28.28h47.52v19.6s-38.1 0-46.06 0c-5.53 0-10.02 4.34-10.02 9.87l-.04.74c0 3.54.04 11.65.04 15.19 0 5.53 4.49 9.87 10.02 9.87h46.06v19.6h-47.52c-15.8 0-28.63-12.75-28.63-28.55 0 0 0-6.7 0-18.05z"/></g><path d="m132.47 127.69c1.58 0 2.58-.09 3.55-.65 1.09-.66 1.74-2.04 1.74-4.61v-24.37c0-.99-1.43-1.69-2.32-1.69-.83-.11-1.73.27-2.32.7-.3.27-.62.8-.56 1.23v23.84c0 .32-.28.75-.68.75h-10.24l-.08-.16v-28.65c0-1.09-1.19-1.86-2.65-1.86-1.69 0-2.73.79-2.73 1.96v28.53l-.16.18h-10.15c-.24-.05-.36-.16-.42-.43v-24c0-.83-.19-1.28-.61-1.61-.66-.48-1.63-.79-2.76-.59-.95.21-1.93.9-1.93 1.92v25.19c0 1.21.07 1.88.71 2.94.75 1.11 2.28 1.38 3.2 1.38z" fill="#231815"/><path d="m146.76 126.82c-.43 0-.87-.08-1.16-.29-.42-.25-.86-.6-1.16-1.74-.18-1.12.12-1.9.51-2.38.37-.45.9-.74 1.64-.74h14.52v-21.24h-12.65c-1.13 0-1.54-.53-1.96-1.3-.36-.86-.3-2.09.18-2.89.46-.59.91-.98 2.17-.98h30.2c.66 0 1.52.2 1.98.53 1.01.86 1.01 2.44.41 3.62-.43.75-1.11 1.03-2.29 1.03h-12.31v21.24h13.41c1.29-.02 2-.05 2.72.81.78.92.81 2.55.05 3.59-.36.54-1.03.75-1.79.75h-34.46z" fill="#231815"/><path d="m73.32 111.49c-2.51 3.25-5.76 5.63-9.56 7.39-.84.39-1.78.41-2.59.08-.59-.29-.96-.72-1.16-1.11v9.69c0 .62-.48 1.04-1.39 1.41-1.53.39-2.97.1-3.65-.48-.35-.33-.48-.85-.48-2.04v-25.41c0-2.29 1.32-4.66 4.11-4.66h11.93v-2.87c0-.84.21-1.16 1.01-1.66.47-.23.99-.36 1.9-.43.91-.08 3.16.54 3.16 1.78v3.17h11.15c1.66-.05 3.17-.13 4.28 1.5.68.96.77 1.83.77 3.58v23.5c-.05 1.43-1.23 2.67-2.51 3.33-1.53.72-3.54.78-5.57.61 0 0-3.08-.41-4.61-.8-.71-.24-1.29-.61-1.47-1.43-.37-1.21 0-2.54.86-3.25.55-.66 2.27-.44 3.13-.22l1.16.28c.92.17 2.45.33 3.13-.16.43-.33.49-.94.49-1.49v-4.45s-.39.99-1.13 1.5c-.47.32-1.44.56-2.9.03-3.8-1.76-7.25-4.14-9.76-7.39h-.31zm-13.3 3.38c.18-.22.45-.41.57-.46 2.21-.94 4.09-2.03 5.92-3.52 2.51-2.04 3.95-4.54 4.07-8.12v-1.48h-9.9c-.35 0-.67.52-.67.94v12.65zm27.4-12.65c0-.57-.4-.94-.83-.94h-10v1.48c.12 3.59 1.74 6.08 4.25 8.12 1.84 1.49 3.86 2.65 6.07 3.59.27.11.51.58.51.58v-12.82z" fill="#231815"/><path d="m191.49 118.88c-.79 0-1.12-.05-1.61-.42-.52-.43-.88-1.61-.46-2.41.48-.96 1.09-1.17 2.22-1.11h14.39v-1.16h-13.69c-.6 0-1.03-.54-1.15-1.23-.12-.8.29-2.11 1.13-2.11h13.71v-1.27h-13.82s-.42.01-.93-.12c-.66-.16-.85-.64-1.03-1.29-.13-.91.16-1.4.51-1.8.24-.27.69-.45 1.1-.45h6.85c-.2-.4-1.13-1.86-1.13-1.86h-7.7c-.52 0-.81-.18-.99-.39-.53-.59-.75-1.79-.48-2.64.23-.72.72-1.22 1.77-1.25h4.53c-.26-.41-1.61-1.9-2.07-2.64-.41-.66-.45-1.32.35-2.24.65-.63 1.31-.96 2.44-.96 1.25 0 1.78.91 2.32 1.77.95 1.29 1.57 2.51 2.68 4.09h1.88v-5.23c0-1.1 1.6-1.37 2.47-1.37 1.09 0 2.41.56 2.41 1.33v5.27h2.5v-5.17c0-.97 1.27-1.43 2.29-1.43 1.23 0 2.56.54 2.56 1.37v5.23h1.84s1.98-3.06 2.98-4.73c.48-.7 1.25-.91 2.26-.86 1.13.16 1.96.86 2.38 1.88.09.36 0 .88-.27 1.27l-1.49 2.44h4.53c.63 0 1.09.2 1.4.45.37.43.82 1.51.36 2.66-.3.75-.69 1.18-1.61 1.18h-7.64l-1.35 1.86h7c1.05 0 1.44.52 1.63 1.29.18.8 0 1.61-.6 2.03-.47.36-.73.34-1.23.34h-13.69v1.27h13.25c1.15 0 1.59 1.2 1.32 2.3-.2.7-.6 1.04-1.37 1.04h-13.2v1.16h15.38c.6 0 1.03.26 1.33.9.3.7.24 1.78-.24 2.37-.3.38-.61.67-1.31.67h-10.84l.31.17c3.33 1.87 7.02 3.43 10.71 4.87.89.32 1.65.59 1.9 1.71.18.91-.46 1.64-.94 2.17-.54.51-.97.72-1.56.77-1.62-.15-2.92-.8-4.17-1.34-3.85-1.72-7.43-3.54-10.58-5.78v6.21c0 .78-.85 1.23-1.56 1.39-.54.11-1.47.07-2.01-.05-.82-.17-1.44-.64-1.44-1.3v-.48s0-6.08 0-6.08l-.73.52c-3.75 2.79-8.09 5.09-12.67 6.91-.36.05-.59.16-1.01.16h-.06c-1.31-.05-2.2-.86-2.62-1.98-.24-.75 0-1.55.48-2.09.73-.63 1.82-.76 3.99-1.71 2.62-1.12 5.06-2.47 7.38-4.08h-9.3zm20.61-13.38 1.14-1.86h-9.77l1.07 1.86z" fill="#231815"/></svg>