<svg xmlns="http://www.w3.org/2000/svg" width="313" height="51" viewBox="0 0 313 51"><defs><style>.a{fill:#009a87;}.b{fill:#0079b9;}</style></defs><g transform="translate(-333 -4975)"><g transform="translate(333 4975)"><path d="M1241.082-85.652h2.593l-1.6,4.787h3.193l-.8,2.4a24.491,24.491,0,0,0,4.7-6.315l2.44.471a21.938,21.938,0,0,1-1.555,2.65h2l1.2-3.988h2.589l-1.193,3.988h5.391l-.6,2.593h-5.584l-1.2,3.594h5.989l-.8,2.593h-5.192a13.966,13.966,0,0,0,3.192,6.908l-2.169,2.765a18.707,18.707,0,0,1-3.017-6.675l-2.795,8.78h-2.593l2.792-8.587a33.52,33.52,0,0,1-8.069,6.349l-.864-2.39a28.283,28.283,0,0,0,9.133-7.151h-5.585l.8-2.593h6.386l1.2-3.594-2.617-.011a16.892,16.892,0,0,1-3.038,3.216l-1.928-1.6.8-.8h-2.991l-.842,2.536s2.063,3.482,2.238,4.05l-2.548,2.268-.866-2.836-3.64,11.146-2.593-.02,3.658-11.149a49.125,49.125,0,0,1-4.989,5.584v-3.392a44.088,44.088,0,0,0,6.582-8.187h-3.388l.8-2.592h3.793Z" transform="translate(-1124.064 85.892)"/><g transform="translate(125.86 25.629)"><path d="M1253.637-67.316l2.572-.02-1.286,4.126h3.085l-.974,2.958a47.029,47.029,0,0,1-4.027,4.023A11.256,11.256,0,0,0,1255.532-53l-2.007,2.539a16.185,16.185,0,0,1-1.882-2.748l-3.425,10.489-2.762.037,3.457-10.249A35.234,35.234,0,0,1,1244.7-50.2l-.179-2.792a26.137,26.137,0,0,0,9.629-7.674l-6.7.017.843-2.545h3.968Z" transform="translate(-1244.518 67.371)"/><path d="M1266.128-67.326l-2.4,7.49h5.589l-1,2.789h-5.588l-3.6,10.777,6.32,0-.928,2.626-15.565-.03.8-2.593h6.585l3.59-10.777h-5.387l.888-2.782,5.5-.007,2.5-7.524Z" transform="translate(-1242.641 67.36)"/></g><g transform="translate(98.257 25.564)"><path d="M1244.452-67.406h-3.193c-3.428,4.12-10.878,7.051-13.771,7.988.067.4.6,2.461.6,2.593a19.158,19.158,0,0,0,5.094-2.265l-.3,1.466,13.97-.037.264-1.5a20.9,20.9,0,0,0,3.526,2.4l2.63-2.66C1251.868-60.158,1246.216-62.45,1244.452-67.406Zm-9.38,7.248c2.327-.762,7.222-4.956,7.222-4.956a15.774,15.774,0,0,0,3.888,4.929Z" transform="translate(-1224.096 67.406)"/><path d="M1251.448-58.42l-.633,2.486-13.706.038-4.888,6.156,10.943-.508c-.7-1.591-1.9-3.777-1.9-3.777s0,0,2.7-1.373a28.4,28.4,0,0,1,3.589,7.55l-3.022,1.432a13.1,13.1,0,0,0-.466-1.625s-14.737.924-18.959,1l.2-2.663,4-.129,4.524-6.058h-6.72l.8-2.525Z" transform="translate(-1225.102 71.195)"/></g><g transform="translate(132.386 0)"><path d="M1275.279-81.363l2.685-.031-.8,2.6-7.785-.037a52.717,52.717,0,0,0-1.862,10.841c.068,2.162.7,3.428,1.566,3.5,1.028-.03,2.4-3.148,2.563-3.861l1.925,1.333c-.364,1.066-2.493,5.92-5.151,5.987-1.3-.1-2.6-.772-3.565-3.591-1.028-4.866.367-9.249,1.734-14.205l-13.97.037.8-2.6,13.871.031,1.3-4.218h2.792l-1.294,4.218,4.692-.021a25.524,25.524,0,0,0-3.153-2.4l2.329-2.041a21.8,21.8,0,0,1,3.372,2.552C1277.055-83.073,1275.279-81.363,1275.279-81.363Z" transform="translate(-1247.629 85.821)"/><path d="M1266.069-78.636l-.666,2.583-4.987.007-2.327,7.192,5.786-.8-.6,2.4-14.167,2.2.4-2.8,5.79-.6,2.392-7.585H1252.7l.793-2.586Z" transform="translate(-1249.108 88.851)"/><path d="M1261.32-77" transform="translate(-1243.959 89.54)"/><path d="M1263.848-85.652" transform="translate(-1242.893 85.892)"/></g><path d="M1287.293-85.371h41.977s-36.253,38.082-36.606,38.6h21.091l-3.7,10.932L1267-35.8l36.6-38.6h-19.693Z" transform="translate(-1109.179 86.011)"/><path d="M1348.948-85.351l-3.583,10.972h-10.942l-12.729,38.6h-13.133l12.737-38.6h-10.746l3.517-11.039Z" transform="translate(-1091.655 85.991)"/><path d="M1338.929-85.371h14.326q1.1,14.989,2.189,29.978l22.284-29.978h14.121l-37.8,49.571h-10.143Z" transform="translate(-1078.85 86.011)"/><path class="a" d="M1162.978-65.573s6.312-19.777,6.447-19.879h10.605c0,.017-6.567,19.885-6.567,19.885Z" transform="translate(-1153.039 85.977)"/><path class="a" d="M1172.19-65.666l6.426-19.743h10.691l-6.416,19.759Z" transform="translate(-1149.155 85.995)"/><path class="a" d="M1225.09-85.452,1216.9-60.393h-26.268S1182.5-36,1182.316-34.977h-26.329l8.13-25.416h26.268l8.2-25.059Z" transform="translate(-1155.987 85.977)"/><path class="b" d="M1192.355-44.083h-15.6l1.506-4.939,7.168-6.626a4.687,4.687,0,0,0-1.082-.488,4.285,4.285,0,0,0-3.649.348c0-.04,1.116-2.336,1.116-2.336,3.578-.876,5.364.965,5.364.965l3.732-3.493h-8.914l1.659-5.033,15.571.03-1.622,5.06-7.11,6.505c.5.5,2.522,1.07,4.73.024l-1.177,2.512c-.977.771-3.314.327-4.279-.122a12.924,12.924,0,0,1-1.085-.721l-3.613,3.31h8.853Z" transform="translate(-1147.232 93.696)"/><path class="b" d="M1213.766-65.687l-.019,13.773,8.793-13.739h5.425c0,.024-13.676,21.571-13.676,21.571h-5.543V-60.65h-5.6l-5.063,16.568h-5.059l5.059-16.568h-5.907l1.572-5.033Z" transform="translate(-1140.729 93.695)"/></g></g></svg>